<?xml version="1.0" standalone="no"?>
<!DOCTYPE svg PUBLIC "-//W3C//DTD SVG 20010904//EN"
 "http://www.w3.org/TR/2001/REC-SVG-20010904/DTD/svg10.dtd">
<svg version="1.0" xmlns="http://www.w3.org/2000/svg"
 width="887.000000pt" height="887.000000pt" viewBox="0 0 887.000000 887.000000"
 preserveAspectRatio="xMidYMid meet">
<metadata>
Created by potrace 1.11, written by Peter Selinger 2001-2013
</metadata>
<g transform="translate(0.000000,887.000000) scale(0.100000,-0.100000)"
fill="#000000" stroke="none">
<path d="M235 8440 c-1 -3 9 -30 24 -60 14 -30 44 -93 65 -140 39 -84 97 -208
161 -345 18 -38 61 -131 95 -205 62 -133 100 -215 185 -395 23 -49 54 -117 70
-150 15 -33 46 -98 68 -145 22 -47 63 -137 93 -201 29 -64 80 -174 114 -244
33 -70 60 -129 60 -130 0 -1 26 -58 59 -126 32 -68 70 -149 84 -179 13 -30 43
-93 65 -140 21 -47 99 -213 172 -370 73 -157 149 -321 170 -365 21 -44 53
-114 72 -155 51 -109 84 -181 144 -309 30 -62 54 -114 54 -116 0 -2 32 -69 70
-150 38 -81 70 -148 70 -150 0 -2 24 -55 54 -118 30 -62 114 -241 186 -398 73
-156 157 -335 186 -398 30 -62 54 -115 54 -116 0 -2 29 -64 65 -140 36 -75 65
-138 65 -139 0 -2 29 -64 64 -137 35 -74 103 -219 151 -324 48 -104 109 -235
135 -290 26 -55 57 -121 68 -146 12 -25 46 -99 77 -164 30 -64 55 -118 55
-120 0 -2 32 -69 70 -149 39 -81 70 -148 70 -150 0 -2 32 -70 70 -150 38 -81
70 -149 70 -151 0 -2 32 -69 70 -150 39 -81 70 -148 70 -150 0 -2 32 -69 70
-150 39 -81 70 -148 70 -150 0 -1 22 -50 50 -108 27 -58 50 -110 50 -116 0 -6
15 -11 33 -12 129 -2 939 0 941 3 1 1 67 143 146 313 79 171 163 353 188 405
24 52 70 151 102 220 57 122 104 225 160 345 15 33 57 123 93 200 35 77 85
183 110 235 24 52 56 120 70 150 43 95 82 180 157 340 40 85 85 182 100 215
15 33 44 95 64 138 20 42 52 112 72 155 20 42 50 106 66 142 16 36 42 92 58
125 42 88 94 201 128 275 16 36 49 106 72 155 23 50 68 146 100 215 32 69 75
161 95 205 21 44 50 107 65 140 15 33 47 101 70 150 23 50 98 209 165 355 68
146 138 299 158 340 178 383 242 521 257 555 10 22 47 102 84 178 36 76 66
140 66 142 0 2 22 50 49 107 76 161 131 280 131 283 0 1 32 69 70 149 39 81
70 149 70 151 0 2 26 59 59 127 32 68 69 146 81 173 13 28 69 149 125 270 56
121 113 243 125 270 12 28 49 105 81 173 33 67 59 124 59 126 0 2 24 55 54
117 29 63 61 132 71 154 10 22 35 76 56 119 21 44 36 82 34 86 -2 4 -2061 6
-2087 1 -5 0 -8 -5 -8 -10 0 -5 -23 -58 -51 -118 -28 -59 -57 -121 -64 -138
-31 -68 -130 -282 -204 -439 -28 -59 -51 -110 -51 -112 0 -1 -22 -49 -49 -106
-27 -57 -62 -132 -79 -168 -45 -98 -161 -347 -192 -415 -96 -207 -226 -489
-250 -540 -15 -33 -41 -89 -58 -125 -45 -97 -163 -350 -221 -474 -28 -59 -51
-109 -51 -111 0 -2 -22 -49 -49 -106 -48 -104 -79 -170 -131 -284 -15 -33 -43
-94 -63 -135 -19 -41 -49 -105 -66 -142 -62 -136 -90 -195 -131 -283 -23 -49
-66 -142 -95 -205 -57 -124 -92 -199 -165 -356 -26 -56 -60 -130 -76 -165 -37
-86 -57 -116 -63 -98 -4 14 -28 68 -91 204 -17 36 -44 94 -60 130 -55 119 -87
189 -140 305 -29 63 -70 153 -92 200 -22 47 -51 108 -63 135 -13 28 -41 88
-63 135 -22 47 -49 108 -62 135 -12 28 -38 84 -57 125 -20 41 -47 100 -61 130
-48 106 -260 566 -297 645 -42 91 -192 417 -237 515 -17 36 -46 99 -65 140
-20 41 -47 100 -60 130 -14 30 -36 78 -48 105 -45 94 -467 1010 -515 1115 -47
102 -95 208 -147 320 -14 30 -28 57 -30 60 -6 7 -2104 7 -2108 0z"/>
</g>
</svg>
