<?xml version="1.0" encoding="utf-8"?>
<!-- Generator: Adobe Illustrator 19.2.1, SVG Export Plug-In . SVG Version: 6.00 Build 0)  -->

<svg version="1.0" id="Layer_1" xmlns="http://www.w3.org/2000/svg" xmlns:xlink="http://www.w3.org/1999/xlink" x="0px" y="0px"
	 viewBox="0 0 226.8 263.6" enable-background="new 0 0 226.8 263.6" xml:space="preserve">
<g>
	<g>
		<polygon  fill="#FFFFFF" points="69.4,131.9 69.4,139.3 69.9,139.5 85,145.1 89.4,146.5 84.9,147.3 69.4,150.4 69.4,158.2 
			85,163.8 89.4,165.3 84.9,165.9 69.4,168.8 69.4,176.6 97.1,169.9 97.1,162.6 80.5,156.6 75.2,154.8 80.5,154 97.1,151 
			97.1,143.5 80,136.3 69.5,131.9 		"/>
	</g>
	<polygon  fill="none" stroke="#FFFFFF" stroke-width="0.75" stroke-miterlimit="10" points="69.4,100.5 85,105 89.4,106.1 
		84.9,107.2 69.4,111.5 69.4,119.3 85,123.7 89.4,124.9 84.9,125.8 71.6,129.4 80,132.8 82.1,133.7 97.1,128.8 97.1,121.6 
		80.5,116.8 75.2,115.5 80.5,114.3 97.1,109.9 97.1,102.5 69.4,93 	"/>
	<polygon  fill="none" stroke="#FFFFFF" stroke-width="0.75" stroke-miterlimit="10" points="69.4,60.6 85,63.9 89.4,64.7 84.9,66.2 
		69.4,71.7 69.4,79.4 85,82.6 89.4,83.5 84.9,84.7 71.6,89.3 80,92.1 82.1,92.8 97.1,86.8 97.1,79.5 80.5,76.1 75.2,75.2 80.5,73.6 
		97.1,67.9 97.1,60.4 69.4,53.1 	"/>
	<polygon  fill="none" stroke="#FFFFFF" stroke-miterlimit="10" points="46.1,33.7 125.4,19.8 125.4,243.8 46.1,224 	"/>
	<polygon  fill="none" stroke="#FFFFFF" stroke-miterlimit="10" points="180.7,33.7 125.4,19.8 125.4,243.8 180.7,224.1 	"/>
</g>

</svg>
