<?xml version="1.0" encoding="utf-8"?>
<!-- Generator: Adobe Illustrator 19.2.1, SVG Export Plug-In . SVG Version: 6.00 Build 0)  -->
<svg version="1.0" id="Layer_1" xmlns="http://www.w3.org/2000/svg" xmlns:xlink="http://www.w3.org/1999/xlink" x="0px" y="0px"
	 viewBox="0 0 226.8 263.6" enable-background="new 0 0 226.8 263.6" xml:space="preserve">
<g>
	<g>
		<path fill="#FFFFFF" d="M166.8,181.7l-19.6,19.8h-24.1l20.5-19.8H166.8 M169.2,180.7h-26.1l-22.5,21.8h27L169.2,180.7L169.2,180.7
			z"/>
	</g>
	<g>
		<path fill="#FFFFFF" d="M57.1,84.6l84.6,96.1l-21.1,20.4L34,104.8L57.1,84.6 M57.2,83.2l-24.6,21.5l88,97.9l22.5-21.8L57.2,83.2
			L57.2,83.2z"/>
	</g>
	<g>
		<path fill="#FFFFFF" d="M82.2,159.3l11.4,12.6l-33.5,30.7l-12.6-10.5L82.2,159.3 M82.3,157.9l-36.2,34.4L60.2,204L95,172
			L82.3,157.9L82.3,157.9z"/>
	</g>
	<g>
		<path fill="#FFFFFF" d="M70.9,146.7l10,11.1l-34.7,32.9l-8.6-12.9L70.9,146.7 M71,145.3l-34.6,32.3l9.7,14.6l36.2-34.4L71,145.3
			L71,145.3z"/>
	</g>
	<path fill="none" stroke="#FFFFFF" stroke-miterlimit="10" d="M124.6,145.7l23.1-21.4c0,0,2.1-10.9-0.2-13.2
		c-2.3-2.2-12.8,0-12.8,0l-23.8,22.3C110.9,133.3,121,143.9,124.6,145.7z"/>
	<path fill="none" stroke="#FFFFFF" stroke-miterlimit="10" d="M126.4,144c0,0,4,10.2-15.5-10.7c-20.8-22.3-7.8-16.4-7.8-16.4"/>
	<path fill="none" stroke="#FFFFFF" stroke-miterlimit="10" d="M123.6,98.8L100,119.4c0,0,5.4,8.5,10.9,13.9l23.8-22.3
		c0,0,3.5-10.5,1.3-12.8C133.9,96,123.6,98.8,123.6,98.8z"/>
	<g>
		<path fill="#FFFFFF" d="M190.8,62.6L152,116.3c0-0.2,0.1-0.3,0.1-0.5c0.9-4.4,0.7-7.1-0.4-8.4c-0.8-0.9-2.5-1.4-5-1.4
			c-2.5,0-5.4,0.5-7.3,0.8c1.5-3.4,3.7-9.3,1.8-11.5c-0.8-0.9-2.2-1.4-4.4-1.4c-1.1,0-2.2,0.1-3.3,0.3L190.8,62.6 M194.2,59.6
			l-67,36.8c0,0,5.6-1.5,9.6-1.5c1.7,0,3.1,0.3,3.7,1c2,2.4-2.8,12.3-2.8,12.3s5.1-1.2,9-1.2c1.9,0,3.5,0.3,4.2,1.1
			c2.2,2.4-1.3,13.2-1.3,13.2L194.2,59.6L194.2,59.6z"/>
	</g>
	<polyline fill="none" stroke="#FFFFFF" stroke-miterlimit="10" points="57.2,83.2 84,83.2 108.8,111.7 	"/>
	<line fill="none" stroke="#FFFFFF" stroke-miterlimit="10" x1="132.3" y1="138.5" x2="169.2" y2="180.7"/>
</g>
</svg>
