<?xml version="1.0" encoding="utf-8"?>
<!-- Generator: Adobe Illustrator 19.2.1, SVG Export Plug-In . SVG Version: 6.00 Build 0)  -->
<svg version="1.0" id="Layer_1" xmlns="http://www.w3.org/2000/svg" xmlns:xlink="http://www.w3.org/1999/xlink" x="0px" y="0px"
	 viewBox="0 0 226.8 263.6" enable-background="new 0 0 226.8 263.6" xml:space="preserve">
<g>
	<g>
		<path fill="#FFFFFF" d="M94.9,168.5c1.6,7.4,3.6,13.9,6,18.9h24.9c2.4-5,4.4-11.5,6-18.9H94.9z"/>
		<path fill="#FFFFFF" d="M91.5,137.7c0.2,6.6,0.7,13,1.5,18.9h40.9c0.8-5.9,1.3-12.3,1.5-18.9H91.5z"/>
		<path fill="#FFFFFF" d="M92.9,107c-0.8,5.9-1.3,12.3-1.5,18.9h43.8c-0.2-6.6-0.7-13-1.5-18.9H92.9z"/>
		<path fill="#FFFFFF" d="M100.9,76.2c-2.4,5-4.4,11.5-6,18.9h36.9c-1.6-7.5-3.6-13.9-6-18.9H100.9z"/>
	</g>
	<g>
		<path fill="#FFFFFF" d="M192,53.2v157.3H34.7V53.2H192 M193,52.2H33.7v159.3H193V52.2L193,52.2z"/>
	</g>
</g>
</svg>
