<?xml version="1.0" encoding="utf-8"?>
<!-- Generator: Adobe Illustrator 19.2.1, SVG Export Plug-In . SVG Version: 6.00 Build 0)  -->
<svg version="1.0" id="Layer_1" xmlns="http://www.w3.org/2000/svg" xmlns:xlink="http://www.w3.org/1999/xlink" x="0px" y="0px"
	 viewBox="0 0 284.1 285.5" enable-background="new 0 0 284.1 285.5" xml:space="preserve">
<path fill="#222223" d="M15.8,75.1l-7,15H7l-7-15h4l3.9,8.5l4-8.5H15.8z"/>
<path fill="#222223" d="M15.8,90.1l7-15h1.8l7,15h-4l-3.9-8.5l-4,8.5H15.8z"/>
<path fill="#222223" d="M47.3,75.1l-7,15h-1.8l-7-15h4l3.9,8.5l4-8.5H47.3z"/>
<path fill="#222223" d="M47.3,90.1l7-15h1.8l7,15h-4l-3.9-8.5l-4,8.5H47.3z"/>
<path fill="#222223" d="M78.9,75.1l-7,15h-1.8l-7-15h4l3.9,8.5l4-8.5H78.9z"/>
<path fill="#222223" d="M78.9,90.1l7-15h1.8l7,15h-4l-3.9-8.5l-4,8.5H78.9z"/>
<path fill="#222223" d="M110.5,75.1l-7,15h-1.8l-7-15h4l3.9,8.5l4-8.5H110.5z"/>
<path fill="#222223" d="M110.5,90.1l7-15h1.8l7,15h-4l-3.9-8.5l-4,8.5H110.5z"/>
<path fill="#222223" d="M142,75.1l-7,15h-1.8l-7-15h4l3.9,8.5l4-8.5H142z"/>
<path fill="#222223" d="M142,90.1l7-15h1.8l7,15h-4l-3.9-8.5l-4,8.5H142z"/>
<path fill="#222223" d="M173.6,75.1l-7,15h-1.8l-7-15h4l3.9,8.5l4-8.5H173.6z"/>
<path fill="#222223" d="M173.6,90.1l7-15h1.8l7,15h-4l-3.9-8.5l-4,8.5H173.6z"/>
<path fill="#222223" d="M205.2,75.1l-7,15h-1.8l-7-15h4l3.9,8.5l4-8.5H205.2z"/>
<path fill="#222223" d="M205.2,90.1l7-15h1.8l7,15h-4l-3.9-8.5l-4,8.5H205.2z"/>
<path fill="#222223" d="M236.7,75.1l-7,15H228l-7-15h4l3.9,8.5l4-8.5H236.7z"/>
<path fill="#222223" d="M236.7,90.1l7-15h1.8l7,15h-4l-3.9-8.5l-4,8.5H236.7z"/>
<path fill="#222223" d="M268.3,75.1l-7,15h-1.8l-7-15h4l3.9,8.5l4-8.5H268.3z"/>
<path fill="#222223" d="M268.3,90.1l7-15h1.8l7,15h-4l-3.9-8.5l-4,8.5H268.3z"/>
<path fill="#222223" d="M15.8,60.1l-7,15H7l-7-15h4l3.9,8.5l4-8.5H15.8z"/>
<path fill="#222223" d="M15.8,75.1l7-15h1.8l7,15h-4l-3.9-8.5l-4,8.5H15.8z"/>
<path fill="#222223" d="M47.3,60.1l-7,15h-1.8l-7-15h4l3.9,8.5l4-8.5H47.3z"/>
<path fill="#222223" d="M47.3,75.1l7-15h1.8l7,15h-4l-3.9-8.5l-4,8.5H47.3z"/>
<path fill="#222223" d="M78.9,60.1l-7,15h-1.8l-7-15h4l3.9,8.5l4-8.5H78.9z"/>
<path fill="#222223" d="M78.9,75.1l7-15h1.8l7,15h-4l-3.9-8.5l-4,8.5H78.9z"/>
<path fill="#222223" d="M110.5,60.1l-7,15h-1.8l-7-15h4l3.9,8.5l4-8.5H110.5z"/>
<path fill="#222223" d="M110.5,75.1l7-15h1.8l7,15h-4l-3.9-8.5l-4,8.5H110.5z"/>
<path fill="#222223" d="M142,60.1l-7,15h-1.8l-7-15h4l3.9,8.5l4-8.5H142z"/>
<path fill="#222223" d="M142,75.1l7-15h1.8l7,15h-4l-3.9-8.5l-4,8.5H142z"/>
<path fill="#222223" d="M173.6,60.1l-7,15h-1.8l-7-15h4l3.9,8.5l4-8.5H173.6z"/>
<path fill="#222223" d="M173.6,75.1l7-15h1.8l7,15h-4l-3.9-8.5l-4,8.5H173.6z"/>
<path fill="#222223" d="M205.2,60.1l-7,15h-1.8l-7-15h4l3.9,8.5l4-8.5H205.2z"/>
<path fill="#222223" d="M205.2,75.1l7-15h1.8l7,15h-4l-3.9-8.5l-4,8.5H205.2z"/>
<path fill="#222223" d="M236.7,60.1l-7,15H228l-7-15h4l3.9,8.5l4-8.5H236.7z"/>
<path fill="#222223" d="M236.7,75.1l7-15h1.8l7,15h-4l-3.9-8.5l-4,8.5H236.7z"/>
<path fill="#222223" d="M268.3,60.1l-7,15h-1.8l-7-15h4l3.9,8.5l4-8.5H268.3z"/>
<path fill="#222223" d="M268.3,75.1l7-15h1.8l7,15h-4l-3.9-8.5l-4,8.5H268.3z"/>
<path fill="#222223" d="M15.8,45.1l-7,15H7l-7-15h4l3.9,8.5l4-8.5H15.8z"/>
<path fill="#222223" d="M15.8,60.1l7-15h1.8l7,15h-4l-3.9-8.5l-4,8.5H15.8z"/>
<path fill="#222223" d="M47.3,45.1l-7,15h-1.8l-7-15h4l3.9,8.5l4-8.5H47.3z"/>
<path fill="#222223" d="M47.3,60.1l7-15h1.8l7,15h-4l-3.9-8.5l-4,8.5H47.3z"/>
<path fill="#222223" d="M78.9,45.1l-7,15h-1.8l-7-15h4l3.9,8.5l4-8.5H78.9z"/>
<path fill="#222223" d="M78.9,60.1l7-15h1.8l7,15h-4l-3.9-8.5l-4,8.5H78.9z"/>
<path fill="#222223" d="M110.5,45.1l-7,15h-1.8l-7-15h4l3.9,8.5l4-8.5H110.5z"/>
<path fill="#222223" d="M110.5,60.1l7-15h1.8l7,15h-4l-3.9-8.5l-4,8.5H110.5z"/>
<path fill="#222223" d="M142,45.1l-7,15h-1.8l-7-15h4l3.9,8.5l4-8.5H142z"/>
<path fill="#222223" d="M142,60.1l7-15h1.8l7,15h-4l-3.9-8.5l-4,8.5H142z"/>
<path fill="#222223" d="M173.6,45.1l-7,15h-1.8l-7-15h4l3.9,8.5l4-8.5H173.6z"/>
<path fill="#222223" d="M173.6,60.1l7-15h1.8l7,15h-4l-3.9-8.5l-4,8.5H173.6z"/>
<path fill="#222223" d="M205.2,45.1l-7,15h-1.8l-7-15h4l3.9,8.5l4-8.5H205.2z"/>
<path fill="#222223" d="M205.2,60.1l7-15h1.8l7,15h-4l-3.9-8.5l-4,8.5H205.2z"/>
<path fill="#222223" d="M236.7,45.1l-7,15H228l-7-15h4l3.9,8.5l4-8.5H236.7z"/>
<path fill="#222223" d="M236.7,60.1l7-15h1.8l7,15h-4l-3.9-8.5l-4,8.5H236.7z"/>
<path fill="#222223" d="M268.3,45.1l-7,15h-1.8l-7-15h4l3.9,8.5l4-8.5H268.3z"/>
<path fill="#222223" d="M268.3,60.1l7-15h1.8l7,15h-4l-3.9-8.5l-4,8.5H268.3z"/>
<path fill="#222223" d="M15.8,30l-7,15H7L0,30h4l3.9,8.5l4-8.5H15.8z"/>
<path fill="#222223" d="M15.8,45.1l7-15h1.8l7,15h-4l-3.9-8.5l-4,8.5H15.8z"/>
<path fill="#222223" d="M47.3,30l-7,15h-1.8l-7-15h4l3.9,8.5l4-8.5H47.3z"/>
<path fill="#222223" d="M47.3,45.1l7-15h1.8l7,15h-4l-3.9-8.5l-4,8.5H47.3z"/>
<path fill="#222223" d="M78.9,30l-7,15h-1.8l-7-15h4l3.9,8.5l4-8.5H78.9z"/>
<path fill="#222223" d="M78.9,45.1l7-15h1.8l7,15h-4l-3.9-8.5l-4,8.5H78.9z"/>
<path fill="#222223" d="M110.5,30l-7,15h-1.8l-7-15h4l3.9,8.5l4-8.5H110.5z"/>
<path fill="#222223" d="M110.5,45.1l7-15h1.8l7,15h-4l-3.9-8.5l-4,8.5H110.5z"/>
<path fill="#222223" d="M142,30l-7,15h-1.8l-7-15h4l3.9,8.5l4-8.5H142z"/>
<path fill="#222223" d="M142,45.1l7-15h1.8l7,15h-4l-3.9-8.5l-4,8.5H142z"/>
<path fill="#222223" d="M173.6,30l-7,15h-1.8l-7-15h4l3.9,8.5l4-8.5H173.6z"/>
<path fill="#222223" d="M173.6,45.1l7-15h1.8l7,15h-4l-3.9-8.5l-4,8.5H173.6z"/>
<path fill="#222223" d="M205.2,30l-7,15h-1.8l-7-15h4l3.9,8.5l4-8.5H205.2z"/>
<path fill="#222223" d="M205.2,45.1l7-15h1.8l7,15h-4l-3.9-8.5l-4,8.5H205.2z"/>
<path fill="#222223" d="M236.7,30l-7,15H228l-7-15h4l3.9,8.5l4-8.5H236.7z"/>
<path fill="#222223" d="M236.7,45.1l7-15h1.8l7,15h-4l-3.9-8.5l-4,8.5H236.7z"/>
<path fill="#222223" d="M268.3,30l-7,15h-1.8l-7-15h4l3.9,8.5l4-8.5H268.3z"/>
<path fill="#222223" d="M268.3,45.1l7-15h1.8l7,15h-4l-3.9-8.5l-4,8.5H268.3z"/>
<path fill="#222223" d="M15.8,15l-7,15H7L0,15h4l3.9,8.5l4-8.5H15.8z"/>
<path fill="#222223" d="M15.8,30l7-15h1.8l7,15h-4l-3.9-8.5l-4,8.5H15.8z"/>
<path fill="#222223" d="M47.3,15l-7,15h-1.8l-7-15h4l3.9,8.5l4-8.5H47.3z"/>
<path fill="#222223" d="M47.3,30l7-15h1.8l7,15h-4l-3.9-8.5l-4,8.5H47.3z"/>
<path fill="#222223" d="M78.9,15l-7,15h-1.8l-7-15h4l3.9,8.5l4-8.5H78.9z"/>
<path fill="#222223" d="M78.9,30l7-15h1.8l7,15h-4l-3.9-8.5l-4,8.5H78.9z"/>
<path fill="#222223" d="M110.5,15l-7,15h-1.8l-7-15h4l3.9,8.5l4-8.5H110.5z"/>
<path fill="#222223" d="M110.5,30l7-15h1.8l7,15h-4l-3.9-8.5l-4,8.5H110.5z"/>
<path fill="#222223" d="M142,15l-7,15h-1.8l-7-15h4l3.9,8.5l4-8.5H142z"/>
<path fill="#222223" d="M142,30l7-15h1.8l7,15h-4l-3.9-8.5l-4,8.5H142z"/>
<path fill="#222223" d="M173.6,15l-7,15h-1.8l-7-15h4l3.9,8.5l4-8.5H173.6z"/>
<path fill="#222223" d="M173.6,30l7-15h1.8l7,15h-4l-3.9-8.5l-4,8.5H173.6z"/>
<path fill="#222223" d="M205.2,15l-7,15h-1.8l-7-15h4l3.9,8.5l4-8.5H205.2z"/>
<path fill="#222223" d="M205.2,30l7-15h1.8l7,15h-4l-3.9-8.5l-4,8.5H205.2z"/>
<path fill="#222223" d="M236.7,15l-7,15H228l-7-15h4l3.9,8.5l4-8.5H236.7z"/>
<path fill="#222223" d="M236.7,30l7-15h1.8l7,15h-4l-3.9-8.5l-4,8.5H236.7z"/>
<path fill="#222223" d="M268.3,15l-7,15h-1.8l-7-15h4l3.9,8.5l4-8.5H268.3z"/>
<path fill="#222223" d="M268.3,30l7-15h1.8l7,15h-4l-3.9-8.5l-4,8.5H268.3z"/>
<path fill="#222223" d="M15.8,0l-7,15H7L0,0h4l3.9,8.5l4-8.5H15.8z"/>
<path fill="#222223" d="M15.8,15l7-15l1.8,0l7,15h-4l-3.9-8.5l-4,8.5H15.8z"/>
<path fill="#222223" d="M47.3,0l-7,15h-1.8l-7-15h4l3.9,8.5l4-8.5H47.3z"/>
<path fill="#222223" d="M47.3,15l7-15l1.8,0l7,15h-4l-3.9-8.5l-4,8.5H47.3z"/>
<path fill="#222223" d="M78.9,0l-7,15h-1.8l-7-15h4L71,8.5L75,0H78.9z"/>
<path fill="#222223" d="M78.9,15l7-15l1.8,0l7,15h-4l-3.9-8.5l-4,8.5H78.9z"/>
<path fill="#222223" d="M110.5,0l-7,15h-1.8l-7-15h4l3.9,8.5l4-8.5H110.5z"/>
<path fill="#222223" d="M110.5,15l7-15l1.8,0l7,15h-4l-3.9-8.5l-4,8.5H110.5z"/>
<path fill="#222223" d="M142,0l-7,15h-1.8l-7-15h4l3.9,8.5l4-8.5H142z"/>
<path fill="#222223" d="M142,15l7-15l1.8,0l7,15h-4l-3.9-8.5l-4,8.5H142z"/>
<path fill="#222223" d="M173.6,0l-7,15h-1.8l-7-15h4l3.9,8.5l4-8.5H173.6z"/>
<path fill="#222223" d="M173.6,15l7-15l1.8,0l7,15h-4l-3.9-8.5l-4,8.5H173.6z"/>
<path fill="#222223" d="M205.2,0l-7,15h-1.8l-7-15h4l3.9,8.5l4-8.5H205.2z"/>
<path fill="#222223" d="M205.2,15l7-15l1.8,0l7,15h-4l-3.9-8.5l-4,8.5H205.2z"/>
<path fill="#222223" d="M236.7,0l-7,15H228l-7-15h4l3.9,8.5l4-8.5H236.7z"/>
<path fill="#222223" d="M236.7,15l7-15l1.8,0l7,15h-4l-3.9-8.5l-4,8.5H236.7z"/>
<path fill="#222223" d="M268.3,0l-7,15h-1.8l-7-15h4l3.9,8.5l4-8.5H268.3z"/>
<path fill="#222223" d="M268.3,15l7-15l1.8,0l7,15h-4l-3.9-8.5l-4,8.5H268.3z"/>
<path fill="#222223" d="M15.8,90.1l-7,15H7l-7-15h4l3.9,8.5l4-8.5H15.8z"/>
<path fill="#222223" d="M15.8,105.2l7-15h1.8l7,15h-4l-3.9-8.5l-4,8.5H15.8z"/>
<path fill="#222223" d="M47.3,90.1l-7,15h-1.8l-7-15h4l3.9,8.5l4-8.5H47.3z"/>
<path fill="#222223" d="M47.3,105.2l7-15h1.8l7,15h-4l-3.9-8.5l-4,8.5H47.3z"/>
<path fill="#222223" d="M78.9,90.1l-7,15h-1.8l-7-15h4l3.9,8.5l4-8.5H78.9z"/>
<path fill="#222223" d="M78.9,105.2l7-15h1.8l7,15h-4l-3.9-8.5l-4,8.5H78.9z"/>
<path fill="#222223" d="M110.5,90.1l-7,15h-1.8l-7-15h4l3.9,8.5l4-8.5H110.5z"/>
<path fill="#222223" d="M110.5,105.2l7-15h1.8l7,15h-4l-3.9-8.5l-4,8.5H110.5z"/>
<path fill="#222223" d="M142,90.1l-7,15h-1.8l-7-15h4l3.9,8.5l4-8.5H142z"/>
<path fill="#222223" d="M142,105.2l7-15h1.8l7,15h-4l-3.9-8.5l-4,8.5H142z"/>
<path fill="#222223" d="M173.6,90.1l-7,15h-1.8l-7-15h4l3.9,8.5l4-8.5H173.6z"/>
<path fill="#222223" d="M173.6,105.2l7-15h1.8l7,15h-4l-3.9-8.5l-4,8.5H173.6z"/>
<path fill="#222223" d="M205.2,90.1l-7,15h-1.8l-7-15h4l3.9,8.5l4-8.5H205.2z"/>
<path fill="#222223" d="M205.2,105.2l7-15h1.8l7,15h-4l-3.9-8.5l-4,8.5H205.2z"/>
<path fill="#222223" d="M236.7,90.1l-7,15H228l-7-15h4l3.9,8.5l4-8.5H236.7z"/>
<path fill="#222223" d="M236.7,105.2l7-15h1.8l7,15h-4l-3.9-8.5l-4,8.5H236.7z"/>
<path fill="#222223" d="M268.3,90.1l-7,15h-1.8l-7-15h4l3.9,8.5l4-8.5H268.3z"/>
<path fill="#222223" d="M268.3,105.2l7-15h1.8l7,15h-4l-3.9-8.5l-4,8.5H268.3z"/>
<path fill="#222223" d="M15.8,105.2l-7,15H7l-7-15h4l3.9,8.5l4-8.5H15.8z"/>
<path fill="#222223" d="M15.8,120.2l7-15h1.8l7,15h-4l-3.9-8.5l-4,8.5H15.8z"/>
<path fill="#222223" d="M47.3,105.2l-7,15h-1.8l-7-15h4l3.9,8.5l4-8.5H47.3z"/>
<path fill="#222223" d="M47.3,120.2l7-15h1.8l7,15h-4l-3.9-8.5l-4,8.5H47.3z"/>
<path fill="#222223" d="M78.9,105.2l-7,15h-1.8l-7-15h4l3.9,8.5l4-8.5H78.9z"/>
<path fill="#222223" d="M78.9,120.2l7-15h1.8l7,15h-4l-3.9-8.5l-4,8.5H78.9z"/>
<path fill="#222223" d="M110.5,105.2l-7,15h-1.8l-7-15h4l3.9,8.5l4-8.5H110.5z"/>
<path fill="#222223" d="M110.5,120.2l7-15h1.8l7,15h-4l-3.9-8.5l-4,8.5H110.5z"/>
<path fill="#222223" d="M142,105.2l-7,15h-1.8l-7-15h4l3.9,8.5l4-8.5H142z"/>
<path fill="#222223" d="M142,120.2l7-15h1.8l7,15h-4l-3.9-8.5l-4,8.5H142z"/>
<path fill="#222223" d="M173.6,105.2l-7,15h-1.8l-7-15h4l3.9,8.5l4-8.5H173.6z"/>
<path fill="#222223" d="M173.6,120.2l7-15h1.8l7,15h-4l-3.9-8.5l-4,8.5H173.6z"/>
<path fill="#222223" d="M205.2,105.2l-7,15h-1.8l-7-15h4l3.9,8.5l4-8.5H205.2z"/>
<path fill="#222223" d="M205.2,120.2l7-15h1.8l7,15h-4l-3.9-8.5l-4,8.5H205.2z"/>
<path fill="#222223" d="M236.7,105.2l-7,15H228l-7-15h4l3.9,8.5l4-8.5H236.7z"/>
<path fill="#222223" d="M236.7,120.2l7-15h1.8l7,15h-4l-3.9-8.5l-4,8.5H236.7z"/>
<path fill="#222223" d="M268.3,105.2l-7,15h-1.8l-7-15h4l3.9,8.5l4-8.5H268.3z"/>
<path fill="#222223" d="M268.3,120.2l7-15h1.8l7,15h-4l-3.9-8.5l-4,8.5H268.3z"/>
<path fill="#222223" d="M15.8,120.2l-7,15H7l-7-15h4l3.9,8.5l4-8.5H15.8z"/>
<path fill="#222223" d="M15.8,135.2l7-15h1.8l7,15h-4l-3.9-8.5l-4,8.5H15.8z"/>
<path fill="#222223" d="M47.3,120.2l-7,15h-1.8l-7-15h4l3.9,8.5l4-8.5H47.3z"/>
<path fill="#222223" d="M47.3,135.2l7-15h1.8l7,15h-4l-3.9-8.5l-4,8.5H47.3z"/>
<path fill="#222223" d="M78.9,120.2l-7,15h-1.8l-7-15h4l3.9,8.5l4-8.5H78.9z"/>
<path fill="#222223" d="M78.9,135.2l7-15h1.8l7,15h-4l-3.9-8.5l-4,8.5H78.9z"/>
<path fill="#222223" d="M110.5,120.2l-7,15h-1.8l-7-15h4l3.9,8.5l4-8.5H110.5z"/>
<path fill="#222223" d="M110.5,135.2l7-15h1.8l7,15h-4l-3.9-8.5l-4,8.5H110.5z"/>
<path fill="#222223" d="M142,120.2l-7,15h-1.8l-7-15h4l3.9,8.5l4-8.5H142z"/>
<path fill="#222223" d="M142,135.2l7-15h1.8l7,15h-4l-3.9-8.5l-4,8.5H142z"/>
<path fill="#222223" d="M173.6,120.2l-7,15h-1.8l-7-15h4l3.9,8.5l4-8.5H173.6z"/>
<path fill="#222223" d="M173.6,135.2l7-15h1.8l7,15h-4l-3.9-8.5l-4,8.5H173.6z"/>
<path fill="#222223" d="M205.2,120.2l-7,15h-1.8l-7-15h4l3.9,8.5l4-8.5H205.2z"/>
<path fill="#222223" d="M205.2,135.2l7-15h1.8l7,15h-4l-3.9-8.5l-4,8.5H205.2z"/>
<path fill="#222223" d="M236.7,120.2l-7,15H228l-7-15h4l3.9,8.5l4-8.5H236.7z"/>
<path fill="#222223" d="M236.7,135.2l7-15h1.8l7,15h-4l-3.9-8.5l-4,8.5H236.7z"/>
<path fill="#222223" d="M268.3,120.2l-7,15h-1.8l-7-15h4l3.9,8.5l4-8.5H268.3z"/>
<path fill="#222223" d="M268.3,135.2l7-15h1.8l7,15h-4l-3.9-8.5l-4,8.5H268.3z"/>
<path fill="#222223" d="M15.8,135.2l-7,15H7l-7-15h4l3.9,8.5l4-8.5H15.8z"/>
<path fill="#222223" d="M15.8,150.2l7-15h1.8l7,15h-4l-3.9-8.5l-4,8.5H15.8z"/>
<path fill="#222223" d="M47.3,135.2l-7,15h-1.8l-7-15h4l3.9,8.5l4-8.5H47.3z"/>
<path fill="#222223" d="M47.3,150.2l7-15h1.8l7,15h-4l-3.9-8.5l-4,8.5H47.3z"/>
<path fill="#222223" d="M78.9,135.2l-7,15h-1.8l-7-15h4l3.9,8.5l4-8.5H78.9z"/>
<path fill="#222223" d="M78.9,150.2l7-15h1.8l7,15h-4l-3.9-8.5l-4,8.5H78.9z"/>
<path fill="#222223" d="M110.5,135.2l-7,15h-1.8l-7-15h4l3.9,8.5l4-8.5H110.5z"/>
<path fill="#222223" d="M110.5,150.2l7-15h1.8l7,15h-4l-3.9-8.5l-4,8.5H110.5z"/>
<path fill="#222223" d="M142,135.2l-7,15h-1.8l-7-15h4l3.9,8.5l4-8.5H142z"/>
<path fill="#222223" d="M142,150.2l7-15h1.8l7,15h-4l-3.9-8.5l-4,8.5H142z"/>
<path fill="#222223" d="M173.6,135.2l-7,15h-1.8l-7-15h4l3.9,8.5l4-8.5H173.6z"/>
<path fill="#222223" d="M173.6,150.2l7-15h1.8l7,15h-4l-3.9-8.5l-4,8.5H173.6z"/>
<path fill="#222223" d="M205.2,135.2l-7,15h-1.8l-7-15h4l3.9,8.5l4-8.5H205.2z"/>
<path fill="#222223" d="M205.2,150.2l7-15h1.8l7,15h-4l-3.9-8.5l-4,8.5H205.2z"/>
<path fill="#222223" d="M236.7,135.2l-7,15H228l-7-15h4l3.9,8.5l4-8.5H236.7z"/>
<path fill="#222223" d="M236.7,150.2l7-15h1.8l7,15h-4l-3.9-8.5l-4,8.5H236.7z"/>
<path fill="#222223" d="M268.3,135.2l-7,15h-1.8l-7-15h4l3.9,8.5l4-8.5H268.3z"/>
<path fill="#222223" d="M268.3,150.2l7-15h1.8l7,15h-4l-3.9-8.5l-4,8.5H268.3z"/>
<path fill="#222223" d="M15.8,150.2l-7,15H7l-7-15h4l3.9,8.5l4-8.5H15.8z"/>
<path fill="#222223" d="M15.8,165.3l7-15h1.8l7,15h-4l-3.9-8.5l-4,8.5H15.8z"/>
<path fill="#222223" d="M47.3,150.2l-7,15h-1.8l-7-15h4l3.9,8.5l4-8.5H47.3z"/>
<path fill="#222223" d="M47.3,165.3l7-15h1.8l7,15h-4l-3.9-8.5l-4,8.5H47.3z"/>
<path fill="#222223" d="M78.9,150.2l-7,15h-1.8l-7-15h4l3.9,8.5l4-8.5H78.9z"/>
<path fill="#222223" d="M78.9,165.3l7-15h1.8l7,15h-4l-3.9-8.5l-4,8.5H78.9z"/>
<path fill="#222223" d="M110.5,150.2l-7,15h-1.8l-7-15h4l3.9,8.5l4-8.5H110.5z"/>
<path fill="#222223" d="M110.5,165.3l7-15h1.8l7,15h-4l-3.9-8.5l-4,8.5H110.5z"/>
<path fill="#222223" d="M142,150.2l-7,15h-1.8l-7-15h4l3.9,8.5l4-8.5H142z"/>
<path fill="#222223" d="M142,165.3l7-15h1.8l7,15h-4l-3.9-8.5l-4,8.5H142z"/>
<path fill="#222223" d="M173.6,150.2l-7,15h-1.8l-7-15h4l3.9,8.5l4-8.5H173.6z"/>
<path fill="#222223" d="M173.6,165.3l7-15h1.8l7,15h-4l-3.9-8.5l-4,8.5H173.6z"/>
<path fill="#222223" d="M205.2,150.2l-7,15h-1.8l-7-15h4l3.9,8.5l4-8.5H205.2z"/>
<path fill="#222223" d="M205.2,165.3l7-15h1.8l7,15h-4l-3.9-8.5l-4,8.5H205.2z"/>
<path fill="#222223" d="M236.7,150.2l-7,15H228l-7-15h4l3.9,8.5l4-8.5H236.7z"/>
<path fill="#222223" d="M236.7,165.3l7-15h1.8l7,15h-4l-3.9-8.5l-4,8.5H236.7z"/>
<path fill="#222223" d="M268.3,150.2l-7,15h-1.8l-7-15h4l3.9,8.5l4-8.5H268.3z"/>
<path fill="#222223" d="M268.3,165.3l7-15h1.8l7,15h-4l-3.9-8.5l-4,8.5H268.3z"/>
<path fill="#222223" d="M15.8,165.3l-7,15H7l-7-15h4l3.9,8.5l4-8.5H15.8z"/>
<path fill="#222223" d="M15.8,180.3l7-15h1.8l7,15h-4l-3.9-8.5l-4,8.5H15.8z"/>
<path fill="#222223" d="M47.3,165.3l-7,15h-1.8l-7-15h4l3.9,8.5l4-8.5H47.3z"/>
<path fill="#222223" d="M47.3,180.3l7-15h1.8l7,15h-4l-3.9-8.5l-4,8.5H47.3z"/>
<path fill="#222223" d="M78.9,165.3l-7,15h-1.8l-7-15h4l3.9,8.5l4-8.5H78.9z"/>
<path fill="#222223" d="M78.9,180.3l7-15h1.8l7,15h-4l-3.9-8.5l-4,8.5H78.9z"/>
<path fill="#222223" d="M110.5,165.3l-7,15h-1.8l-7-15h4l3.9,8.5l4-8.5H110.5z"/>
<path fill="#222223" d="M110.5,180.3l7-15h1.8l7,15h-4l-3.9-8.5l-4,8.5H110.5z"/>
<path fill="#222223" d="M142,165.3l-7,15h-1.8l-7-15h4l3.9,8.5l4-8.5H142z"/>
<path fill="#222223" d="M142,180.3l7-15h1.8l7,15h-4l-3.9-8.5l-4,8.5H142z"/>
<path fill="#222223" d="M173.6,165.3l-7,15h-1.8l-7-15h4l3.9,8.5l4-8.5H173.6z"/>
<path fill="#222223" d="M173.6,180.3l7-15h1.8l7,15h-4l-3.9-8.5l-4,8.5H173.6z"/>
<path fill="#222223" d="M205.2,165.3l-7,15h-1.8l-7-15h4l3.9,8.5l4-8.5H205.2z"/>
<path fill="#222223" d="M205.2,180.3l7-15h1.8l7,15h-4l-3.9-8.5l-4,8.5H205.2z"/>
<path fill="#222223" d="M236.7,165.3l-7,15H228l-7-15h4l3.9,8.5l4-8.5H236.7z"/>
<path fill="#222223" d="M236.7,180.3l7-15h1.8l7,15h-4l-3.9-8.5l-4,8.5H236.7z"/>
<path fill="#222223" d="M268.3,165.3l-7,15h-1.8l-7-15h4l3.9,8.5l4-8.5H268.3z"/>
<path fill="#222223" d="M268.3,180.3l7-15h1.8l7,15h-4l-3.9-8.5l-4,8.5H268.3z"/>
<path fill="#222223" d="M15.8,180.3l-7,15H7l-7-15h4l3.9,8.5l4-8.5H15.8z"/>
<path fill="#222223" d="M15.8,195.3l7-15h1.8l7,15h-4l-3.9-8.5l-4,8.5H15.8z"/>
<path fill="#222223" d="M47.3,180.3l-7,15h-1.8l-7-15h4l3.9,8.5l4-8.5H47.3z"/>
<path fill="#222223" d="M47.3,195.3l7-15h1.8l7,15h-4l-3.9-8.5l-4,8.5H47.3z"/>
<path fill="#222223" d="M78.9,180.3l-7,15h-1.8l-7-15h4l3.9,8.5l4-8.5H78.9z"/>
<path fill="#222223" d="M78.9,195.3l7-15h1.8l7,15h-4l-3.9-8.5l-4,8.5H78.9z"/>
<path fill="#222223" d="M110.5,180.3l-7,15h-1.8l-7-15h4l3.9,8.5l4-8.5H110.5z"/>
<path fill="#222223" d="M110.5,195.3l7-15h1.8l7,15h-4l-3.9-8.5l-4,8.5H110.5z"/>
<path fill="#222223" d="M142,180.3l-7,15h-1.8l-7-15h4l3.9,8.5l4-8.5H142z"/>
<path fill="#222223" d="M142,195.3l7-15h1.8l7,15h-4l-3.9-8.5l-4,8.5H142z"/>
<path fill="#222223" d="M173.6,180.3l-7,15h-1.8l-7-15h4l3.9,8.5l4-8.5H173.6z"/>
<path fill="#222223" d="M173.6,195.3l7-15h1.8l7,15h-4l-3.9-8.5l-4,8.5H173.6z"/>
<path fill="#222223" d="M205.2,180.3l-7,15h-1.8l-7-15h4l3.9,8.5l4-8.5H205.2z"/>
<path fill="#222223" d="M205.2,195.3l7-15h1.8l7,15h-4l-3.9-8.5l-4,8.5H205.2z"/>
<path fill="#222223" d="M236.7,180.3l-7,15H228l-7-15h4l3.9,8.5l4-8.5H236.7z"/>
<path fill="#222223" d="M236.7,195.3l7-15h1.8l7,15h-4l-3.9-8.5l-4,8.5H236.7z"/>
<path fill="#222223" d="M268.3,180.3l-7,15h-1.8l-7-15h4l3.9,8.5l4-8.5H268.3z"/>
<path fill="#222223" d="M268.3,195.3l7-15h1.8l7,15h-4l-3.9-8.5l-4,8.5H268.3z"/>
<path fill="#222223" d="M15.8,195.3l-7,15H7l-7-15h4l3.9,8.5l4-8.5H15.8z"/>
<path fill="#222223" d="M15.8,210.3l7-15h1.8l7,15h-4l-3.9-8.5l-4,8.5H15.8z"/>
<path fill="#222223" d="M47.3,195.3l-7,15h-1.8l-7-15h4l3.9,8.5l4-8.5H47.3z"/>
<path fill="#222223" d="M47.3,210.3l7-15h1.8l7,15h-4l-3.9-8.5l-4,8.5H47.3z"/>
<path fill="#222223" d="M78.9,195.3l-7,15h-1.8l-7-15h4l3.9,8.5l4-8.5H78.9z"/>
<path fill="#222223" d="M78.9,210.3l7-15h1.8l7,15h-4l-3.9-8.5l-4,8.5H78.9z"/>
<path fill="#222223" d="M110.5,195.3l-7,15h-1.8l-7-15h4l3.9,8.5l4-8.5H110.5z"/>
<path fill="#222223" d="M110.5,210.3l7-15h1.8l7,15h-4l-3.9-8.5l-4,8.5H110.5z"/>
<path fill="#222223" d="M142,195.3l-7,15h-1.8l-7-15h4l3.9,8.5l4-8.5H142z"/>
<path fill="#222223" d="M142,210.3l7-15h1.8l7,15h-4l-3.9-8.5l-4,8.5H142z"/>
<path fill="#222223" d="M173.6,195.3l-7,15h-1.8l-7-15h4l3.9,8.5l4-8.5H173.6z"/>
<path fill="#222223" d="M173.6,210.3l7-15h1.8l7,15h-4l-3.9-8.5l-4,8.5H173.6z"/>
<path fill="#222223" d="M205.2,195.3l-7,15h-1.8l-7-15h4l3.9,8.5l4-8.5H205.2z"/>
<path fill="#222223" d="M205.2,210.3l7-15h1.8l7,15h-4l-3.9-8.5l-4,8.5H205.2z"/>
<path fill="#222223" d="M236.7,195.3l-7,15H228l-7-15h4l3.9,8.5l4-8.5H236.7z"/>
<path fill="#222223" d="M236.7,210.3l7-15h1.8l7,15h-4l-3.9-8.5l-4,8.5H236.7z"/>
<path fill="#222223" d="M268.3,195.3l-7,15h-1.8l-7-15h4l3.9,8.5l4-8.5H268.3z"/>
<path fill="#222223" d="M268.3,210.3l7-15h1.8l7,15h-4l-3.9-8.5l-4,8.5H268.3z"/>
<path fill="#222223" d="M15.8,210.3l-7,15H7l-7-15h4l3.9,8.5l4-8.5H15.8z"/>
<path fill="#222223" d="M15.8,225.4l7-15h1.8l7,15h-4l-3.9-8.5l-4,8.5H15.8z"/>
<path fill="#222223" d="M47.3,210.3l-7,15h-1.8l-7-15h4l3.9,8.5l4-8.5H47.3z"/>
<path fill="#222223" d="M47.3,225.4l7-15h1.8l7,15h-4l-3.9-8.5l-4,8.5H47.3z"/>
<path fill="#222223" d="M78.9,210.3l-7,15h-1.8l-7-15h4l3.9,8.5l4-8.5H78.9z"/>
<path fill="#222223" d="M78.9,225.4l7-15h1.8l7,15h-4l-3.9-8.5l-4,8.5H78.9z"/>
<path fill="#222223" d="M110.5,210.3l-7,15h-1.8l-7-15h4l3.9,8.5l4-8.5H110.5z"/>
<path fill="#222223" d="M110.5,225.4l7-15h1.8l7,15h-4l-3.9-8.5l-4,8.5H110.5z"/>
<path fill="#222223" d="M142,210.3l-7,15h-1.8l-7-15h4l3.9,8.5l4-8.5H142z"/>
<path fill="#222223" d="M142,225.4l7-15h1.8l7,15h-4l-3.9-8.5l-4,8.5H142z"/>
<path fill="#222223" d="M173.6,210.3l-7,15h-1.8l-7-15h4l3.9,8.5l4-8.5H173.6z"/>
<path fill="#222223" d="M173.6,225.4l7-15h1.8l7,15h-4l-3.9-8.5l-4,8.5H173.6z"/>
<path fill="#222223" d="M205.2,210.3l-7,15h-1.8l-7-15h4l3.9,8.5l4-8.5H205.2z"/>
<path fill="#222223" d="M205.2,225.4l7-15h1.8l7,15h-4l-3.9-8.5l-4,8.5H205.2z"/>
<path fill="#222223" d="M236.7,210.3l-7,15H228l-7-15h4l3.9,8.5l4-8.5H236.7z"/>
<path fill="#222223" d="M236.7,225.4l7-15h1.8l7,15h-4l-3.9-8.5l-4,8.5H236.7z"/>
<path fill="#222223" d="M268.3,210.3l-7,15h-1.8l-7-15h4l3.9,8.5l4-8.5H268.3z"/>
<path fill="#222223" d="M268.3,225.4l7-15h1.8l7,15h-4l-3.9-8.5l-4,8.5H268.3z"/>
<path fill="#222223" d="M15.8,225.4l-7,15H7l-7-15h4l3.9,8.5l4-8.5H15.8z"/>
<path fill="#222223" d="M15.8,240.4l7-15h1.8l7,15h-4l-3.9-8.5l-4,8.5H15.8z"/>
<path fill="#222223" d="M47.3,225.4l-7,15h-1.8l-7-15h4l3.9,8.5l4-8.5H47.3z"/>
<path fill="#222223" d="M47.3,240.4l7-15h1.8l7,15h-4l-3.9-8.5l-4,8.5H47.3z"/>
<path fill="#222223" d="M78.9,225.4l-7,15h-1.8l-7-15h4l3.9,8.5l4-8.5H78.9z"/>
<path fill="#222223" d="M78.9,240.4l7-15h1.8l7,15h-4l-3.9-8.5l-4,8.5H78.9z"/>
<path fill="#222223" d="M110.5,225.4l-7,15h-1.8l-7-15h4l3.9,8.5l4-8.5H110.5z"/>
<path fill="#222223" d="M110.5,240.4l7-15h1.8l7,15h-4l-3.9-8.5l-4,8.5H110.5z"/>
<path fill="#222223" d="M142,225.4l-7,15h-1.8l-7-15h4l3.9,8.5l4-8.5H142z"/>
<path fill="#222223" d="M142,240.4l7-15h1.8l7,15h-4l-3.9-8.5l-4,8.5H142z"/>
<path fill="#222223" d="M173.6,225.4l-7,15h-1.8l-7-15h4l3.9,8.5l4-8.5H173.6z"/>
<path fill="#222223" d="M173.6,240.4l7-15h1.8l7,15h-4l-3.9-8.5l-4,8.5H173.6z"/>
<path fill="#222223" d="M205.2,225.4l-7,15h-1.8l-7-15h4l3.9,8.5l4-8.5H205.2z"/>
<path fill="#222223" d="M205.2,240.4l7-15h1.8l7,15h-4l-3.9-8.5l-4,8.5H205.2z"/>
<path fill="#222223" d="M236.7,225.4l-7,15H228l-7-15h4l3.9,8.5l4-8.5H236.7z"/>
<path fill="#222223" d="M236.7,240.4l7-15h1.8l7,15h-4l-3.9-8.5l-4,8.5H236.7z"/>
<path fill="#222223" d="M268.3,225.4l-7,15h-1.8l-7-15h4l3.9,8.5l4-8.5H268.3z"/>
<path fill="#222223" d="M268.3,240.4l7-15h1.8l7,15h-4l-3.9-8.5l-4,8.5H268.3z"/>
<path fill="#222223" d="M15.8,240.4l-7,15H7l-7-15h4l3.9,8.5l4-8.5H15.8z"/>
<path fill="#222223" d="M15.8,255.4l7-15h1.8l7,15h-4l-3.9-8.5l-4,8.5H15.8z"/>
<path fill="#222223" d="M47.3,240.4l-7,15h-1.8l-7-15h4l3.9,8.5l4-8.5H47.3z"/>
<path fill="#222223" d="M47.3,255.4l7-15h1.8l7,15h-4l-3.9-8.5l-4,8.5H47.3z"/>
<path fill="#222223" d="M78.9,240.4l-7,15h-1.8l-7-15h4l3.9,8.5l4-8.5H78.9z"/>
<path fill="#222223" d="M78.9,255.4l7-15h1.8l7,15h-4l-3.9-8.5l-4,8.5H78.9z"/>
<path fill="#222223" d="M110.5,240.4l-7,15h-1.8l-7-15h4l3.9,8.5l4-8.5H110.5z"/>
<path fill="#222223" d="M110.5,255.4l7-15h1.8l7,15h-4l-3.9-8.5l-4,8.5H110.5z"/>
<path fill="#222223" d="M142,240.4l-7,15h-1.8l-7-15h4l3.9,8.5l4-8.5H142z"/>
<path fill="#222223" d="M142,255.4l7-15h1.8l7,15h-4l-3.9-8.5l-4,8.5H142z"/>
<path fill="#222223" d="M173.6,240.4l-7,15h-1.8l-7-15h4l3.9,8.5l4-8.5H173.6z"/>
<path fill="#222223" d="M173.6,255.4l7-15h1.8l7,15h-4l-3.9-8.5l-4,8.5H173.6z"/>
<path fill="#222223" d="M205.2,240.4l-7,15h-1.8l-7-15h4l3.9,8.5l4-8.5H205.2z"/>
<path fill="#222223" d="M205.2,255.4l7-15h1.8l7,15h-4l-3.9-8.5l-4,8.5H205.2z"/>
<path fill="#222223" d="M236.7,240.4l-7,15H228l-7-15h4l3.9,8.5l4-8.5H236.7z"/>
<path fill="#222223" d="M236.7,255.4l7-15h1.8l7,15h-4l-3.9-8.5l-4,8.5H236.7z"/>
<path fill="#222223" d="M268.3,240.4l-7,15h-1.8l-7-15h4l3.9,8.5l4-8.5H268.3z"/>
<path fill="#222223" d="M268.3,255.4l7-15h1.8l7,15h-4l-3.9-8.5l-4,8.5H268.3z"/>
<path fill="#222223" d="M15.8,255.4l-7,15H7l-7-15h4l3.9,8.5l4-8.5H15.8z"/>
<path fill="#222223" d="M15.8,270.4l7-15h1.8l7,15h-4l-3.9-8.5l-4,8.5H15.8z"/>
<path fill="#222223" d="M47.3,255.4l-7,15h-1.8l-7-15h4l3.9,8.5l4-8.5H47.3z"/>
<path fill="#222223" d="M47.3,270.4l7-15h1.8l7,15h-4l-3.9-8.5l-4,8.5H47.3z"/>
<path fill="#222223" d="M78.9,255.4l-7,15h-1.8l-7-15h4l3.9,8.5l4-8.5H78.9z"/>
<path fill="#222223" d="M78.9,270.4l7-15h1.8l7,15h-4l-3.9-8.5l-4,8.5H78.9z"/>
<path fill="#222223" d="M110.5,255.4l-7,15h-1.8l-7-15h4l3.9,8.5l4-8.5H110.5z"/>
<path fill="#222223" d="M110.5,270.4l7-15h1.8l7,15h-4l-3.9-8.5l-4,8.5H110.5z"/>
<path fill="#222223" d="M142,255.4l-7,15h-1.8l-7-15h4l3.9,8.5l4-8.5H142z"/>
<path fill="#222223" d="M142,270.4l7-15h1.8l7,15h-4l-3.9-8.5l-4,8.5H142z"/>
<path fill="#222223" d="M173.6,255.4l-7,15h-1.8l-7-15h4l3.9,8.5l4-8.5H173.6z"/>
<path fill="#222223" d="M173.6,270.4l7-15h1.8l7,15h-4l-3.9-8.5l-4,8.5H173.6z"/>
<path fill="#222223" d="M205.2,255.4l-7,15h-1.8l-7-15h4l3.9,8.5l4-8.5H205.2z"/>
<path fill="#222223" d="M205.2,270.4l7-15h1.8l7,15h-4l-3.9-8.5l-4,8.5H205.2z"/>
<path fill="#222223" d="M236.7,255.4l-7,15H228l-7-15h4l3.9,8.5l4-8.5H236.7z"/>
<path fill="#222223" d="M236.7,270.4l7-15h1.8l7,15h-4l-3.9-8.5l-4,8.5H236.7z"/>
<path fill="#222223" d="M268.3,255.4l-7,15h-1.8l-7-15h4l3.9,8.5l4-8.5H268.3z"/>
<path fill="#222223" d="M268.3,270.4l7-15h1.8l7,15h-4l-3.9-8.5l-4,8.5H268.3z"/>
<path fill="#222223" d="M15.8,270.4l-7,15H7l-7-15h4l3.9,8.5l4-8.5H15.8z"/>
<path fill="#222223" d="M15.8,285.4l7-15h1.8l7,15h-4l-3.9-8.5l-4,8.5H15.8z"/>
<path fill="#222223" d="M47.3,270.4l-7,15h-1.8l-7-15h4l3.9,8.5l4-8.5H47.3z"/>
<path fill="#222223" d="M47.3,285.4l7-15h1.8l7,15h-4l-3.9-8.5l-4,8.5H47.3z"/>
<path fill="#222223" d="M78.9,270.4l-7,15h-1.8l-7-15h4L71,279l4-8.5H78.9z"/>
<path fill="#222223" d="M78.9,285.4l7-15h1.8l7,15h-4l-3.9-8.5l-4,8.5H78.9z"/>
<path fill="#222223" d="M110.5,270.4l-7,15h-1.8l-7-15h4l3.9,8.5l4-8.5H110.5z"/>
<path fill="#222223" d="M110.5,285.4l7-15h1.8l7,15h-4l-3.9-8.5l-4,8.5H110.5z"/>
<path fill="#222223" d="M142,270.4l-7,15h-1.8l-7-15h4l3.9,8.5l4-8.5H142z"/>
<path fill="#222223" d="M142,285.4l7-15h1.8l7,15h-4l-3.9-8.5l-4,8.5H142z"/>
<path fill="#222223" d="M173.6,270.4l-7,15h-1.8l-7-15h4l3.9,8.5l4-8.5H173.6z"/>
<path fill="#222223" d="M173.6,285.4l7-15h1.8l7,15h-4l-3.9-8.5l-4,8.5H173.6z"/>
<path fill="#222223" d="M205.2,270.4l-7,15h-1.8l-7-15h4l3.9,8.5l4-8.5H205.2z"/>
<path fill="#222223" d="M205.2,285.4l7-15h1.8l7,15h-4l-3.9-8.5l-4,8.5H205.2z"/>
<path fill="#222223" d="M236.7,270.4l-7,15H228l-7-15h4l3.9,8.5l4-8.5H236.7z"/>
<path fill="#222223" d="M236.7,285.4l7-15h1.8l7,15h-4l-3.9-8.5l-4,8.5H236.7z"/>
<path fill="#222223" d="M268.3,270.4l-7,15h-1.8l-7-15h4l3.9,8.5l4-8.5H268.3z"/>
<path fill="#222223" d="M268.3,285.4l7-15h1.8l7,15h-4l-3.9-8.5l-4,8.5H268.3z"/>
</svg>
